<svg width="413" height="397" viewBox="0 0 413 397" fill="none" xmlns="http://www.w3.org/2000/svg">
<path d="M324.108 305.903C324.108 327.184 272.161 344.332 208.113 344.332C144.066 344.332 92.1184 327.031 92.1184 305.903C92.1184 284.621 144.066 267.474 208.113 267.474C272.161 267.474 324.108 284.621 324.108 305.903Z" fill="#9EDCF2"/>
<path d="M324.108 305.903C324.108 327.184 272.161 344.332 208.113 344.332C144.066 344.332 92.1184 327.031 92.1184 305.903C92.1184 284.621 144.066 267.474 208.113 267.474C272.161 267.474 324.108 284.621 324.108 305.903Z" fill="#7DBCE7"/>
<path d="M75.6629 192.759L72.275 203.782C72.275 203.782 71.4684 207.763 75.3402 208.528C79.5348 208.375 79.2121 204.701 78.8895 203.629L75.6629 192.759Z" fill="#9EDCF2"/>
<path d="M412.677 146.368L413 144.99C378.96 138.56 344.113 138.407 322.979 139.325C326.367 127.536 327.496 113.757 327.496 98.5993C327.496 76.7054 318.784 59.2515 304.91 46.0845C307.33 38.5824 310.557 21.894 301.684 0.612445C301.684 0.612445 285.873 -4.13379 249.897 18.6788C235.862 15.3105 220.858 13.6263 205.855 13.6263C189.399 13.6263 172.782 15.6167 157.134 19.5974C120.028 -4.44 103.734 0.45934 103.734 0.45934C93.0863 25.7216 99.7008 44.5534 101.637 49.1466C89.0531 62.0074 81.4707 78.3895 81.4707 98.4462C81.4707 113.604 83.2453 127.23 87.7625 139.019C66.4672 138.253 32.9109 138.56 0 144.837L0.322656 146.215C33.2336 139.938 67.1125 139.784 88.2465 140.55C89.2145 143 90.3438 145.449 91.473 147.746C70.5004 148.358 34.8469 150.961 0.645312 160.147L1.1293 161.525C35.6535 152.339 71.6297 149.889 92.441 149.277C105.025 171.324 129.546 185.716 173.428 190.156C167.136 194.137 160.844 200.873 158.263 212.356C149.712 216.184 122.932 225.676 106.799 199.342C106.799 199.342 97.7648 183.725 80.5027 182.501C80.5027 182.501 63.7246 182.194 79.3734 192.452C79.3734 192.452 90.5051 197.505 98.2488 216.337C98.2488 216.337 108.413 248.489 156.972 238.078V270.995C156.972 270.995 156.004 282.784 144.55 286.612C144.55 286.612 137.774 291.052 145.034 293.501C145.034 293.501 176.493 295.951 176.493 271.454V235.322C176.493 235.322 175.202 220.93 182.623 216.031V275.435C182.623 275.435 182.139 289.674 174.396 295.032C174.396 295.032 169.233 303.759 180.526 301.463C180.526 301.463 202.144 298.554 203.112 274.516L203.596 214.346H208.759L209.243 274.516C210.211 298.401 231.829 301.463 231.829 301.463C243.121 303.913 237.959 295.032 237.959 295.032C230.215 289.674 229.731 275.435 229.731 275.435V216.49C237.152 222.002 235.862 235.322 235.862 235.322V271.454C235.862 295.951 267.321 293.501 267.321 293.501C274.58 291.052 267.805 286.612 267.805 286.612C256.512 282.631 255.382 270.995 255.382 270.995V223.533C255.382 205.007 247.155 195.208 239.088 190.156C285.873 185.716 308.298 171.477 318.623 149.124C339.112 149.583 376.056 152.033 411.225 161.525L411.709 160.147C376.701 150.808 340.08 148.358 319.268 147.746C320.236 145.449 321.043 143.153 321.85 140.703C343.468 139.938 378.476 139.938 412.677 146.368Z" fill="#010101"/>
<path d="M281.679 97.5275C291.681 106.254 297.65 116.666 297.65 127.842C297.65 180.51 256.35 181.888 205.371 181.888C154.391 181.888 113.091 174.539 113.091 127.842C113.091 116.666 118.899 106.254 128.901 97.6806C145.518 83.2888 173.589 90.944 205.371 90.944C237.152 90.944 265.062 83.1357 281.679 97.5275Z" fill="#F5CCB3"/>
<path d="M174.718 130.598C174.718 145.143 166.168 156.779 155.52 156.779C144.873 156.779 136.322 144.99 136.322 130.598C136.322 116.053 144.873 104.417 155.52 104.417C166.168 104.264 174.718 116.053 174.718 130.598Z" fill="white"/>
<path d="M168.588 130.904C168.588 140.55 162.78 148.358 155.843 148.358C148.745 148.358 143.098 140.55 143.098 130.904C143.098 121.259 148.906 113.45 155.843 113.45C162.78 113.45 168.588 121.259 168.588 130.904Z" fill="#AF5C51"/>
<path d="M277.807 130.598C277.807 145.143 269.257 156.779 258.609 156.779C247.961 156.779 239.411 144.99 239.411 130.598C239.411 116.053 247.961 104.417 258.609 104.417C269.095 104.264 277.807 116.053 277.807 130.598Z" fill="white"/>
<path d="M271.515 130.904C271.515 140.55 265.707 148.358 258.77 148.358C251.672 148.358 246.025 140.55 246.025 130.904C246.025 121.259 251.833 113.45 258.77 113.45C265.869 113.45 271.515 121.259 271.515 130.904ZM210.533 153.87C210.533 156.32 208.436 158.463 205.693 158.463C203.112 158.463 200.854 156.473 200.854 153.87C200.854 151.267 202.951 149.277 205.693 149.277C208.275 149.277 210.533 151.267 210.533 153.87ZM194.562 165.353C194.239 164.587 194.723 163.822 195.53 163.516C196.336 163.209 197.143 163.669 197.466 164.434C198.756 167.803 201.983 169.946 205.693 169.946C209.404 169.946 212.63 167.649 213.921 164.434C214.244 163.669 215.05 163.209 215.857 163.516C216.664 163.822 217.148 164.587 216.825 165.353C215.212 169.793 210.695 172.855 205.693 172.855C200.692 172.855 196.175 169.793 194.562 165.353Z" fill="#AF5C51"/>
<path d="M87.9238 186.175C87.9238 187.4 86.4719 188.319 84.5359 188.319C82.7613 188.319 81.148 187.4 81.148 186.175C81.148 184.95 82.6 184.032 84.5359 184.032C86.4719 184.032 87.9238 184.95 87.9238 186.175ZM97.2809 191.074C97.2809 192.299 95.8289 193.218 93.893 193.218C92.1184 193.218 90.5051 192.299 90.5051 191.074C90.5051 189.85 91.957 188.931 93.893 188.931C95.8289 188.931 97.2809 189.85 97.2809 191.074ZM102.927 197.505C102.927 198.73 101.475 199.648 99.5394 199.648C97.7648 199.648 96.1516 198.73 96.1516 197.505C96.1516 196.28 97.6035 195.361 99.5394 195.361C101.475 195.208 102.927 196.28 102.927 197.505ZM108.09 204.854C108.09 206.079 106.638 206.997 104.702 206.997C102.927 206.997 101.314 206.079 101.314 204.854C101.314 203.629 102.766 202.71 104.702 202.71C106.638 202.557 108.09 203.629 108.09 204.854ZM113.736 211.59C113.736 212.815 112.284 213.734 110.348 213.734C108.574 213.734 106.961 212.815 106.961 211.59C106.961 210.366 108.412 209.447 110.348 209.447C112.284 209.447 113.736 210.366 113.736 211.59ZM121.48 217.562C121.48 218.786 120.028 219.705 118.092 219.705C116.318 219.705 114.704 218.786 114.704 217.562C114.704 216.337 116.156 215.418 118.092 215.418C120.028 215.265 121.48 216.337 121.48 217.562ZM132.289 221.389C132.289 222.614 130.837 223.533 128.901 223.533C127.127 223.533 125.513 222.614 125.513 221.389C125.513 220.164 126.965 219.246 128.901 219.246C130.837 219.246 132.289 220.164 132.289 221.389ZM143.098 221.389C143.098 222.614 141.646 223.533 139.71 223.533C137.936 223.533 136.322 222.614 136.322 221.389C136.322 220.164 137.774 219.246 139.71 219.246C141.646 219.246 143.098 220.164 143.098 221.389ZM154.068 219.705C154.068 220.93 152.616 221.848 150.68 221.848C148.906 221.848 147.293 220.93 147.293 219.705C147.293 218.48 148.745 217.562 150.68 217.562C152.455 217.562 154.068 218.48 154.068 219.705Z" fill="#C4E5D9"/>
</svg>
